HIERARCHY
ROOT Hips
{
 OFFSET 0.000000 0.000000 0.000000
 CHANNELS 6 Xposition Yposition Zposition Yrotation Xrotation Zrotation
 JOINT Chest
 {
  OFFSET 0.000000 9.585900 0.002600
  CHANNELS 3 Yrotation Xrotation Zrotation
  JOINT Chest2
  {
   OFFSET 0.000000 9.601200 -0.005300
   CHANNELS 3 Yrotation Xrotation Zrotation
   JOINT Chest3
   {
    OFFSET 0.000000 9.561800 0.000000
    CHANNELS 3 Yrotation Xrotation Zrotation
    JOINT Chest4
    {
     OFFSET 0.000000 9.552100 0.000000
     CHANNELS 3 Yrotation Xrotation Zrotation
     JOINT Neck
     {
      OFFSET 0.000000 14.453000 0.000000
      CHANNELS 3 Yrotation Xrotation Zrotation
      JOINT Head
      {
       OFFSET 0.000000 8.936500 -0.011300
       CHANNELS 3 Yrotation Xrotation Zrotation
       End Site
       {
        OFFSET 0.000000 17.073600 -0.006000
       }
      }
     }
     JOINT RightCollar
     {
      OFFSET -2.921100 9.558500 0.000000
      CHANNELS 3 Yrotation Xrotation Zrotation
      JOINT RightShoulder
      {
       OFFSET -13.519700 0.000000 0.000000
       CHANNELS 3 Yrotation Xrotation Zrotation
       JOINT RightElbow
       {
        OFFSET 0.000000 -29.696600 0.000000
        CHANNELS 3 Yrotation Xrotation Zrotation
        JOINT RightWrist
        {
         OFFSET 0.000000 -24.004700 0.000000
         CHANNELS 3 Yrotation Xrotation Zrotation
         End Site
         {
          OFFSET 0.000000 -17.728500 0.000000
         }
        }
       }
      }
     }
     JOINT LeftCollar
     {
      OFFSET 2.921100 9.558500 0.000000
      CHANNELS 3 Yrotation Xrotation Zrotation
      JOINT LeftShoulder
      {
       OFFSET 13.519700 0.000000 0.000000
       CHANNELS 3 Yrotation Xrotation Zrotation
       JOINT LeftElbow
       {
        OFFSET 0.000000 -29.696600 0.000000
        CHANNELS 3 Yrotation Xrotation Zrotation
        JOINT LeftWrist
        {
         OFFSET 0.000000 -24.004700 0.000000
         CHANNELS 3 Yrotation Xrotation Zrotation
         End Site
         {
          OFFSET 0.000000 -17.728500 0.000000
         }
        }
       }
      }
     }
    }
   }
  }
 }
 JOINT RightHip
 {
  OFFSET -7.771700 -0.012900 -0.001300
  CHANNELS 3 Yrotation Xrotation Zrotation
  JOINT RightKnee
  {
   OFFSET 0.000000 -40.869800 0.001200
   CHANNELS 3 Yrotation Xrotation Zrotation
   JOINT RightAnkle
   {
    OFFSET 0.000000 -39.717900 0.002100
    CHANNELS 3 Yrotation Xrotation Zrotation
    JOINT RightToe
    {
     OFFSET 0.000000 -4.965400 11.033500
     CHANNELS 3 Yrotation Xrotation Zrotation
     End Site
     {
      OFFSET 0.000000 -1.423100 5.872300
     }
    }
   }
  }
 }
 JOINT LeftHip
 {
  OFFSET 7.771700 -0.012900 -0.001300
  CHANNELS 3 Yrotation Xrotation Zrotation
  JOINT LeftKnee
  {
   OFFSET 0.000000 -40.869800 0.001200
   CHANNELS 3 Yrotation Xrotation Zrotation
   JOINT LeftAnkle
   {
    OFFSET 0.000000 -39.717900 0.002100
    CHANNELS 3 Yrotation Xrotation Zrotation
    JOINT LeftToe
    {
     OFFSET 0.000000 -4.965400 11.033500
     CHANNELS 3 Yrotation Xrotation Zrotation
     End Site
     {
      OFFSET 0.000000 -1.423100 5.872300
     }
    }
   }
  }
 }
}
MOTION
Frames: 16
Frame Time: 0.008333
0.000000 85.388000 0.000000 0.000000 -5.767877 0.000000 0.000000 11.653817 0.000000 0.000000 -5.885947 0.000000 0.000000 -0.000000 0.000000 0.000000 -0.000000 0.000000 0.000000 12.528835 0.000000 0.000000 0.711642 0.000000 0.000000 -0.000000 0.000000 0.000000 0.000000 -90.000000 0.000000 -2.309062 0.000000 0.000000 2.309062 0.000000 0.000000 -0.000000 0.000000 0.000000 -0.000000 90.000000 0.000000 -2.309062 0.000000 0.000000 2.309062 0.000000 0.000000 8.520406 0.000000 0.000000 1.905762 0.000000 -0.000000 -4.658285 0.000000 0.000000 -0.000000 0.000000 0.000000 8.520406 0.000000 0.000000 1.905762 0.000000 -0.000000 -4.658285 0.000000 0.000000 -0.000000 0.000000
-16.720773 57.417004 70.667064 -178.441239 -30.051951 -1.175884 2.747822 18.097626 2.896420 0.284105 2.086809 0.189239 0.473475 3.440898 0.325184 2.403418 15.869820 1.781050 -6.270234 17.459027 -1.003987 -11.222649 -3.214925 0.230122 1.625215 -0.262507 -1.613167 0.375916 -18.727307 -3.706800 -3.874813 -48.458785 -0.161169 9.917068 -19.276704 -51.924928 -6.183457 0.693790 -2.202048 21.432440 -11.528540 -9.550212 79.653204 -30.667497 -59.999900 3.699410 -21.027157 39.034949 12.661964 -40.790005 -7.014283 -5.638386 68.414127 -7.867445 4.545973 2.985095 11.476423 -0.308177 0.491481 -0.131889 -8.433262 -48.680829 2.445763 23.982511 68.375964 22.382444 -12.596260 29.635298 1.791136 0.617827 -18.435578 -6.091625
-16.720239 57.417249 70.667512 -178.436097 -30.054932 -1.173528 2.739933 18.091363 2.896228 0.282534 2.080282 0.192042 0.474077 3.450586 0.320918 2.399595 15.870005 1.781445 -6.262222 17.395242 -1.025137 -11.198767 -3.313158 0.186971 1.626261 -0.264247 -1.609847 0.370213 -18.731129 -3.695097 -3.828711 -48.445784 -0.207380 9.914137 -19.270232 -51.904376 -6.195470 0.690488 -2.197217 21.448531 -11.518298 -9.552444 79.643802 -30.674074 -59.997735 3.700991 -21.027807 39.028179 12.653405 -40.784539 -7.005772 -5.643210 68.413617 -7.886850 4.539349 2.978281 11.477651 -0.302853 0.496499 -0.127901 -8.427244 -48.678677 2.435974 23.953908 68.374915 22.353141 -12.580188 29.646669 1.807753 0.604070 -18.425298 -6.097279
-16.719315 57.417188 70.668550 -178.434259 -30.055570 -1.170712 2.735780 18.086296 2.895293 0.278737 2.064910 0.197583 0.476102 3.459780 0.316334 2.379053 15.826241 1.788855 -6.245120 17.369373 -1.061935 -11.167393 -3.402784 0.135885 1.644573 -0.210177 -1.623146 0.368886 -18.737170 -3.685851 -3.801251 -48.437331 -0.248053 9.915532 -19.265598 -51.884972 -6.179631 0.742094 -2.219516 21.447398 -11.516808 -9.542234 79.653630 -30.667053 -60.008140 3.698312 -21.021844 39.032922 12.652976 -40.783862 -7.003509 -5.633161 68.416495 -7.881581 4.522216 2.977547 11.471873 -0.288150 0.497762 -0.124604 -8.421339 -48.678700 2.431025 23.931342 68.373200 22.326796 -12.564833 29.656640 1.827370 0.593461 -18.422213 -6.105016
-16.719125 57.416995 70.669785 -178.431850 -30.056624 -1.163588 2.728903 18.080106 2.890403 0.273580 2.045283 0.202110 0.475110 3.462776 0.315994 2.370719 15.816552 1.786994 -6.229892 17.311908 -1.085972 -11.127085 -3.482018 0.078561 1.660988 -0.190962 -1.619591 0.363088 -18.728834 -3.686586 -3.781552 -48.430988 -0.287137 9.926246 -19.250265 -51.855488 -6.171026 0.772487 -2.232878 21.450027 -11.515426 -9.535060 79.667362 -30.651815 -60.018354 3.685054 -21.014390 39.033255 12.657943 -40.781809 -7.010706 -5.629822 68.419943 -7.881160 4.514162 2.974315 11.470433 -0.285114 0.499227 -0.122417 -8.412235 -48.678814 2.419556 23.928072 68.367956 22.316740 -12.551647 29.666401 1.848210 0.582620 -18.421996 -6.112262
-16.719096 57.416786 70.670997 -178.430839 -30.059390 -1.155682 2.718390 18.061112 2.888797 0.269180 2.034019 0.201973 0.474772 3.460979 0.316076 2.373026 15.839735 1.780736 -6.215000 17.225298 -1.099159 -11.075702 -3.552733 0.015555 1.664247 -0.200941 -1.608613 0.362196 -18.709589 -3.692190 -3.783041 -48.427657 -0.311694 9.936303 -19.243196 -51.823345 -6.179276 0.751380 -2.235031 21.451281 -11.493621 -9.524890 79.697397 -30.636289 -60.023614 3.714948 -21.009556 39.025802 12.664009 -40.779539 -7.016126 -5.593114 68.427048 -7.852281 4.492251 2.974259 11.470897 -0.286066 0.497574 -0.121742 -8.392300 -48.677885 2.401521 23.927925 68.362662 22.315843 -12.547249 29.673773 1.864563 0.576011 -18.419963 -6.118149
-16.717852 57.415774 70.673585 -178.429284 -30.053530 -1.157005 2.709054 18.026793 2.895488 0.265113 2.035752 0.200162 0.474003 3.442055 0.317896 2.362304 15.818644 1.782237 -6.188086 17.189346 -1.128849 -11.009505 -3.621007 -0.055734 1.667418 -0.194268 -1.598724 0.380964 -18.648721 -3.712393 -3.814715 -48.428243 -0.317659 9.923357 -19.213648 -51.788482 -6.167107 0.808706 -2.255747 21.452661 -11.493369 -9.526892 79.709295 -30.630377 -60.022226 3.746638 -21.011913 39.022657 12.669438 -40.787268 -7.012751 -5.589640 68.429911 -7.851920 4.472488 2.980212 11.471896 -0.282208 0.494437 -0.120871 -8.377237 -48.687320 2.396895 23.936759 68.356382 22.325459 -12.547591 29.689086 1.878891 0.571467 -18.415185 -6.121076
-16.717694 57.414378 70.676802 -178.426910 -30.043679 -1.154923 2.688957 17.988660 2.895806 0.275168 2.055928 0.193292 0.459421 3.403124 0.325375 2.351859 15.795841 1.785028 -6.147322 17.156662 -1.164793 -10.924459 -3.691980 -0.134880 1.688806 -0.171265 -1.601448 0.369488 -18.601795 -3.712406 -3.841749 -48.430955 -0.326951 9.940361 -19.212553 -51.750404 -6.148110 0.869400 -2.282078 21.455741 -11.489118 -9.526662 79.724419 -30.621835 -60.025777 3.785258 -21.020616 39.020180 12.679674 -40.799556 -7.021005 -5.576920 68.434308 -7.839754 4.463973 2.988445 11.467635 -0.278599 0.487742 -0.115243 -8.368742 -48.700839 2.392582 23.965054 68.345400 22.349520 -12.562272 29.706358 1.892544 0.570009 -18.421097 -6.128035
-16.717829 57.413589 70.679074 -178.431609 -30.039717 -1.151002 2.682714 17.958150 2.902849 0.272688 2.048968 0.193719 0.455446 3.392073 0.326068 2.310040 15.706092 1.799214 -6.080182 17.186078 -1.232845 -10.813281 -3.765542 -0.219757 1.735149 -0.054021 -1.631398 0.339806 -18.578049 -3.691018 -3.866371 -48.442730 -0.344347 9.935946 -19.189958 -51.705068 -6.114909 0.979059 -2.335891 21.466601 -11.472798 -9.522374 79.764332 -30.597334 -60.038666 3.789845 -21.018656 39.015284 12.704872 -40.805148 -7.038294 -5.572664 68.438584 -7.821401 4.460751 2.996202 11.466719 -0.279083 0.481314 -0.117169 -8.356719 -48.707894 2.388501 23.982688 68.337226 22.362873 -12.548799 29.726631 1.901462 0.563936 -18.424671 -6.124810
-16.719134 57.413124 70.681015 -178.436339 -30.036262 -1.143622 2.670733 17.930430 2.901919 0.270423 2.041557 0.193605 0.451708 3.380460 0.326275 2.311778 15.717180 1.795478 -6.016239 17.118855 -1.257680 -10.670381 -3.838162 -0.310178 1.748386 -0.041674 -1.631433 0.332675 -18.545287 -3.682772 -3.936537 -48.463653 -0.351352 9.856664 -19.132237 -51.658083 -6.114022 0.991160 -2.349639 21.482846 -11.463587 -9.514834 79.854879 -30.531272 -60.064528 3.710281 -20.980656 39.002284 12.724570 -40.806759 -7.056849 -5.576204 68.438619 -7.814164 4.465507 2.995623 11.463679 -0.281209 0.482843 -0.117660 -8.345161 -48.713318 2.381841 23.992841 68.328834 22.366194 -12.544723 29.745461 1.917321 0.568321 -18.417839 -6.133790
-16.720643 57.412653 70.683319 -178.435787 -30.027296 -1.141016 2.646850 17.883761 2.909187 0.279784 2.051517 0.186383 0.447880 3.368043 0.326009 2.309337 15.725880 1.791006 -5.937668 17.057103 -1.280317 -10.491363 -3.903958 -0.406797 1.773650 -0.056259 -1.622147 0.321250 -18.473345 -3.679388 -4.025938 -48.499215 -0.365807 9.870637 -19.116720 -51.585293 -6.157781 0.980680 -2.358139 21.554246 -11.422784 -9.496859 79.915038 -30.467680 -60.083449 3.750514 -21.002280 38.986877 12.734773 -40.812108 -7.072193 -5.589100 68.435156 -7.819129 4.476782 2.990877 11.466760 -0.283054 0.488008 -0.122766 -8.327729 -48.724672 2.372516 23.975541 68.322579 22.351652 -12.552112 29.765068 1.924502 0.572670 -18.419166 -6.137592
-16.718896 57.411831 70.686769 -178.432853 -30.006355 -1.162019 2.631366 17.846037 2.930614 0.262223 2.017973 0.194143 0.464569 3.380937 0.318187 2.296954 15.700926 1.794744 -5.838148 17.031911 -1.312792 -10.271012 -3.959617 -0.511509 1.858534 -0.105348 -1.602762 0.282065 -18.321367 -3.694621 -4.149648 -48.547710 -0.379721 9.827327 -19.082204 -51.530584 -6.177366 1.015003 -2.378190 21.588287 -11.387672 -9.477697 79.959109 -30.432663 -60.102676 3.803247 -21.028797 38.993282 12.719783 -40.832852 -7.056625 -5.602378 68.426257 -7.828658 4.495290 2.990674 11.472026 -0.301207 0.491323 -0.129227 -8.334522 -48.751721 2.402250 23.938643 68.329627 22.323087 -12.570321 29.784545 1.923064 0.585767 -18.423665 -6.139989
-16.718603 57.412475 70.688105 -178.439031 -29.996392 -1.172952 2.614578 17.822202 2.945788 0.258690 2.010439 0.194674 0.432757 3.331302 0.327653 2.305577 15.709431 1.783206 -5.707713 17.017246 -1.341702 -10.007632 -4.008623 -0.624685 1.918632 -0.070223 -1.611403 0.292021 -18.240754 -3.683271 -4.318245 -48.605394 -0.386461 9.783227 -19.050703 -51.495903 -6.189675 1.045344 -2.398757 21.611314 -11.344999 -9.449844 80.023135 -30.393645 -60.128062 3.838818 -21.041396 39.006301 12.712088 -40.841673 -7.042678 -5.608351 68.418549 -7.833815 4.507815 2.990835 11.474028 -0.303973 0.493055 -0.132415 -8.341356 -48.764442 2.427733 23.915598 68.332786 22.299532 -12.578934 29.806841 1.927858 0.594193 -18.434945 -6.146065
-16.719363 57.412940 70.690116 -178.441754 -29.977987 -1.181721 2.588896 17.795517 2.956421 0.262902 2.005416 0.192481 0.419106 3.319343 0.331914 2.241886 15.644734 1.801904 -5.520722 17.038106 -1.407651 -9.701702 -4.059041 -0.743463 2.072051 -0.061811 -1.636870 0.290378 -18.090716 -3.692503 -4.532237 -48.672260 -0.390670 9.759554 -19.030975 -51.464743 -6.163341 1.095552 -2.457720 21.622586 -11.297309 -9.414350 80.178386 -30.297726 -60.152673 3.781897 -21.014794 38.969141 12.707372 -40.859042 -7.036124 -5.619927 68.412143 -7.844140 4.515429 2.994421 11.473677 -0.300496 0.492253 -0.132875 -8.352637 -48.786536 2.452399 23.894153 68.332522 22.271565 -12.582202 29.843863 1.937662 0.602755 -18.459794 -6.153395
-16.721744 57.413797 70.691678 -178.438829 -29.959430 -1.185972 2.571101 17.774747 2.959037 0.268898 2.003971 0.189966 0.389894 3.308029 0.342799 2.200634 15.617013 1.812309 -5.328013 17.023058 -1.451171 -9.355217 -4.119163 -0.864376 2.215515 -0.109502 -1.650007 0.303534 -17.923733 -3.701093 -4.789305 -48.750920 -0.399355 9.730668 -19.014513 -51.434376 -6.167450 1.098154 -2.494539 21.628335 -11.249117 -9.377606 80.333625 -30.204144 -60.191256 3.729240 -20.998744 38.953540 12.699127 -40.873180 -7.038345 -5.622977 68.405551 -7.846673 4.516976 2.992398 11.469944 -0.308145 0.497154 -0.133980 -8.363472 -48.808914 2.469566 23.881909 68.331452 22.240089 -12.564667 29.881754 1.970577 0.597608 -18.480880 -6.164005
-16.722548 57.415695 70.691547 -178.440431 -29.949912 -1.199805 2.562200 17.764870 2.974782 0.251272 1.998243 0.196224 0.384784 3.309773 0.343745 2.174769 15.607616 1.817879 -5.125008 16.988224 -1.480506 -8.970972 -4.193860 -0.985220 2.337883 -0.168847 -1.662625 0.340198 -17.771015 -3.699058 -5.084929 -48.843013 -0.415519 9.696924 -18.996206 -51.399288 -6.193184 1.074960 -2.517438 21.628136 -11.207339 -9.341668 80.507525 -30.101720 -60.247015 3.802758 -21.015080 38.979924 12.682807 -40.882604 -7.021621 -5.614475 68.401137 -7.839293 4.519883 2.999355 11.465684 -0.308391 0.491555 -0.133486 -8.381444 -48.821243 2.498396 23.877029 68.335916 22.230569 -12.570977 29.902176 1.973772 0.600883 -18.493795 -6.165729
